<svg xmlns="http://www.w3.org/2000/svg" width="1320" height="460" viewBox="0 0 1320 460" role="img" aria-label="Healthy Food Picks">
  <defs>
    <linearGradient id="g" x1="0" x2="1" y1="0" y2="1">
      <stop stop-color="#0f172a"/>
      <stop offset=".52" stop-color="#b91c1c"/>
      <stop offset="1" stop-color="#f59e0b"/>
    </linearGradient>
  </defs>
  <rect width="1320" height="460" fill="url(#g)"/>
  <circle cx="1120" cy="110" r="180" fill="#fff" opacity=".1"/>
  <circle cx="1160" cy="292" r="116" fill="#fff" opacity=".14"/>
  <text x="90" y="160" font-family="Arial, sans-serif" font-size="56" font-weight="800" fill="#fff">Healthy Food Picks</text>
  <text x="94" y="220" font-family="Arial, sans-serif" font-size="28" font-weight="600" fill="#fff" opacity=".92">Dry food, wet food, treats, and prescription diets</text>
  <rect x="94" y="264" width="156" height="48" rx="24" fill="#fff"/>
  <text x="172" y="296" text-anchor="middle" font-family="Arial, sans-serif" font-size="18" font-weight="800" fill="#b91c1c">Shop Now</text>
  <g transform="translate(850 105)">
    <rect x="-8" y="118" width="300" height="126" rx="28" fill="#fff" opacity=".95"/>
    <path d="M54 118 C36 72 58 34 96 34 C132 34 148 64 154 94 C166 64 188 42 220 46 C258 52 276 90 264 126" fill="#fff" opacity=".95"/>
    <circle cx="100" cy="86" r="10" fill="#111827"/><circle cx="216" cy="92" r="10" fill="#111827"/>
    <path d="M145 132 C166 150 190 150 212 132" stroke="#111827" stroke-width="9" fill="none" stroke-linecap="round"/>
    <rect x="-112" y="160" width="96" height="112" rx="16" fill="#fff" opacity=".9"/>
    <rect x="-92" y="134" width="56" height="34" rx="10" fill="#fbbf24"/>
    <text x="-64" y="224" text-anchor="middle" font-family="Arial" font-size="18" font-weight="900" fill="#b91c1c">FOOD</text>
    <rect x="330" y="152" width="70" height="128" rx="18" fill="#fff" opacity=".9"/>
    <rect x="346" y="126" width="38" height="30" rx="8" fill="#fbbf24"/>
    <text x="365" y="224" text-anchor="middle" font-family="Arial" font-size="16" font-weight="900" fill="#b91c1c">CARE</text>
  </g>
</svg>